<?xml version="1.0" encoding="UTF-8"?>
<svg xmlns="http://www.w3.org/2000/svg" version="1.1" viewBox="0 0 1000 1000">
  <defs>
    <style>
      .cls-1 {
        fill: #0a9047;
      }

      .cls-2 {
        fill: #fff;
      }

      .cls-3 {
        fill: #feec39;
      }

      .cls-4 {
        fill: #056fd7;
      }

      .cls-5 {
        fill: #40cc64;
      }

      .cls-6 {
        fill: #0b96fd;
      }

      .cls-7 {
        fill: #5bd872;
      }

      .cls-8 {
        fill: #fcfffe;
      }

      .cls-9 {
        fill: #c7eaf2;
      }

      .cls-10 {
        fill: #2b323f;
      }

      .cls-11 {
        fill: #ccd85f;
      }

      .cls-12 {
        fill: #daa900;
      }
    </style>
  </defs>
  <!-- Generator: Adobe Illustrator 28.7.1, SVG Export Plug-In . SVG Version: 1.2.0 Build 142)  -->
  <g>
    <g id="Layer_1">
      <g id="Layer_1-2" data-name="Layer_1">
        <rect class="cls-10" x="-1.5" width="1001.5" height="1001.5"/>
        <g>
          <path class="cls-2" d="M137.5,786.3v-80h33.4c6,0,11,.8,15.1,2.5,4,1.7,7.1,4.1,9.1,7.1s3.1,6.6,3.1,10.6-.6,5.8-1.9,8.1c-1.3,2.4-3,4.4-5.3,5.9-2.2,1.6-4.8,2.7-7.8,3.3v.8c3.2.2,6.2,1,9,2.6,2.7,1.6,5,3.8,6.6,6.6,1.7,2.8,2.5,6.2,2.5,10s-1.1,8.1-3.3,11.5-5.4,6-9.5,8c-4.1,1.9-9.2,2.9-15.1,2.9h-35.9ZM156.9,739.2h10.7c2.1,0,4-.4,5.6-1.1s2.9-1.7,3.8-3c.9-1.3,1.4-2.9,1.4-4.8,0-2.7-1-4.8-2.9-6.3s-4.5-2.3-7.7-2.3h-11v17.5h0ZM156.9,770.7h12c4.2,0,7.3-.8,9.3-2.4,2-1.6,3-3.8,3-6.6s-.5-3.8-1.4-5.3c-1-1.5-2.3-2.7-4.1-3.5s-3.9-1.2-6.4-1.2h-12.3v19.1h-.1Z"/>
          <path class="cls-2" d="M259,706.3h19.3v51.6c0,6-1.4,11.2-4.3,15.6-2.8,4.4-6.8,7.8-11.9,10.2s-11,3.6-17.7,3.6-12.7-1.2-17.8-3.6c-5.1-2.4-9-5.8-11.8-10.2s-4.2-9.6-4.2-15.6v-51.6h19.3v49.9c0,2.8.6,5.2,1.8,7.4s2.9,3.9,5.1,5.1c2.2,1.2,4.7,1.8,7.6,1.8s5.4-.6,7.6-1.8c2.2-1.2,3.9-2.9,5.1-5.1,1.2-2.2,1.8-4.6,1.8-7.4v-49.9h0Z"/>
          <path class="cls-2" d="M342.9,732.5c-.4-1.6-1.1-3.1-2-4.4-.9-1.3-1.9-2.3-3.2-3.2-1.2-.9-2.7-1.6-4.3-2-1.6-.5-3.4-.7-5.3-.7-3.9,0-7.2.9-10.1,2.8-2.8,1.9-5,4.6-6.5,8.2-1.5,3.6-2.3,7.9-2.3,13s.7,9.5,2.2,13.1,3.6,6.4,6.4,8.3c2.8,1.9,6.2,2.9,10.2,2.9s6.5-.6,9-1.7c2.5-1.2,4.3-2.8,5.6-4.9,1.3-2.1,1.9-4.6,1.9-7.5l3.6.4h-19.5v-14.1h34.5v10.6c0,7.2-1.5,13.3-4.6,18.4-3,5.1-7.2,9-12.5,11.8-5.3,2.7-11.4,4.1-18.3,4.1s-14.3-1.7-20.1-5c-5.8-3.3-10.3-8-13.5-14.2-3.2-6.1-4.8-13.4-4.8-21.9s1-12.4,2.9-17.5c2-5.1,4.7-9.4,8.2-12.9s7.6-6.2,12.2-8,9.6-2.7,14.9-2.7,9,.7,12.9,2c4,1.3,7.5,3.2,10.6,5.6s5.6,5.3,7.5,8.6,3.1,7,3.6,11h-19.6.4Z"/>
          <path class="cls-2" d="M398.4,786.3v-80h33.4c6,0,11,.8,15.1,2.5,4,1.7,7.1,4.1,9.1,7.1s3.1,6.6,3.1,10.6-.6,5.8-1.9,8.1c-1.3,2.4-3,4.4-5.3,5.9-2.2,1.6-4.8,2.7-7.8,3.3v.8c3.2.2,6.2,1,9,2.6,2.7,1.6,5,3.8,6.6,6.6,1.7,2.8,2.5,6.2,2.5,10s-1.1,8.1-3.3,11.5c-2.2,3.4-5.4,6-9.5,8-4.1,1.9-9.2,2.9-15.1,2.9h-35.9ZM417.7,739.2h10.7c2.1,0,4-.4,5.6-1.1s2.9-1.7,3.8-3,1.4-2.9,1.4-4.8c0-2.7-1-4.8-2.9-6.3s-4.5-2.3-7.7-2.3h-11v17.5h.1ZM417.7,770.7h12c4.2,0,7.3-.8,9.3-2.4,2-1.6,3-3.8,3-6.6s-.5-3.8-1.4-5.3c-1-1.5-2.3-2.7-4.1-3.5-1.8-.8-3.9-1.2-6.4-1.2h-12.3v19.1h-.1Z"/>
          <path class="cls-2" d="M547,746.3c0,8.8-1.7,16.3-5.1,22.4-3.4,6.1-8,10.8-13.7,13.9-5.8,3.2-12.2,4.8-19.4,4.8s-13.7-1.6-19.4-4.8c-5.8-3.2-10.3-7.9-13.7-14-3.4-6.1-5.1-13.5-5.1-22.3s1.7-16.3,5.1-22.4c3.4-6.1,7.9-10.8,13.7-13.9,5.8-3.2,12.2-4.8,19.4-4.8s13.6,1.6,19.4,4.8,10.3,7.8,13.7,13.9c3.4,6.1,5.1,13.6,5.1,22.4h0ZM527.2,746.3c0-5.2-.7-9.6-2.2-13.2-1.5-3.6-3.6-6.3-6.3-8.2-2.7-1.8-6-2.8-9.9-2.8s-7.1.9-9.9,2.8c-2.8,1.8-4.9,4.6-6.3,8.2-1.5,3.6-2.2,8-2.2,13.2s.7,9.6,2.2,13.2c1.5,3.6,3.6,6.3,6.3,8.2,2.8,1.8,6.1,2.8,9.9,2.8s7.2-.9,9.9-2.8c2.7-1.8,4.9-4.6,6.3-8.2,1.5-3.6,2.2-8,2.2-13.2Z"/>
          <path class="cls-2" d="M606.6,706.3h19.3v51.6c0,6-1.4,11.2-4.3,15.6-2.8,4.4-6.8,7.8-11.9,10.2-5.1,2.4-11,3.6-17.7,3.6s-12.7-1.2-17.8-3.6c-5.1-2.4-9-5.8-11.8-10.2s-4.2-9.6-4.2-15.6v-51.6h19.3v49.9c0,2.8.6,5.2,1.8,7.4s2.9,3.9,5.1,5.1c2.2,1.2,4.7,1.8,7.6,1.8s5.4-.6,7.6-1.8c2.2-1.2,3.9-2.9,5.1-5.1,1.2-2.2,1.8-4.6,1.8-7.4v-49.9h.1Z"/>
          <path class="cls-2" d="M706.1,706.3v80h-16.4l-31.8-46.2h-.5v46.2h-19.3v-80h16.6l31.5,46.1h.7v-46.1h19.3,0Z"/>
          <path class="cls-2" d="M715.6,722v-15.7h67.6v15.7h-24.3v64.3h-19.1v-64.3h-24.3,0Z"/>
          <path class="cls-2" d="M788.7,706.3h21.6l16.9,33.5h.7l16.9-33.5h21.6l-29.3,53.3v26.7h-19.2v-26.7l-29.3-53.3h0Z"/>
          <path class="cls-2" d="M306.2,886.3v-80h33.4c6,0,11,.8,15.1,2.5,4,1.7,7.1,4.1,9.1,7.1s3.1,6.6,3.1,10.6-.6,5.8-1.9,8.1c-1.3,2.4-3,4.4-5.3,5.9-2.2,1.6-4.8,2.7-7.8,3.3v.8c3.2.2,6.2,1,9,2.6,2.7,1.6,5,3.8,6.6,6.6,1.7,2.8,2.5,6.2,2.5,10s-1.1,8.1-3.3,11.5c-2.2,3.4-5.4,6-9.5,8-4.1,1.9-9.2,2.9-15.1,2.9h-35.9ZM325.5,839.2h10.7c2.1,0,4-.4,5.6-1.1s2.9-1.7,3.8-3,1.4-2.9,1.4-4.8c0-2.7-1-4.8-2.9-6.3s-4.5-2.3-7.7-2.3h-11v17.5h.1ZM325.5,870.7h12c4.2,0,7.3-.8,9.3-2.4,2-1.6,3-3.8,3-6.6s-.5-3.8-1.4-5.3c-1-1.5-2.3-2.7-4.1-3.5-1.8-.8-3.9-1.2-6.4-1.2h-12.3v19.1h-.1Z"/>
          <path class="cls-2" d="M379.3,886.3v-80h33c6,0,11.2,1.1,15.5,3.2,4.4,2.1,7.7,5.2,10.1,9.2s3.6,8.7,3.6,14.2-1.2,10.3-3.6,14.1-5.9,6.8-10.3,8.8c-4.5,2-9.7,3-15.8,3h-20.9v-15.2h17.3c2.9,0,5.4-.4,7.3-1.2,2-.8,3.5-1.9,4.5-3.5s1.5-3.6,1.5-6.1-.5-4.5-1.5-6.2c-1-1.6-2.5-2.9-4.5-3.7s-4.4-1.2-7.3-1.2h-9.5v64.4h-19.3v.2ZM424.3,849.8l19.9,36.6h-21.1l-19.5-36.6h20.7Z"/>
          <path class="cls-2" d="M469.4,886.3h-20.8l27-80h25.7l27,80h-20.8l-18.8-59.8h-.6l-18.8,59.8h0ZM466.6,854.8h43.4v14.7h-43.4v-14.7Z"/>
          <path class="cls-2" d="M536.7,886.3v-11l38.9-53.3h-38.8v-15.7h63.3v11l-38.9,53.3h38.8v15.7h-63.3Z"/>
          <path class="cls-2" d="M631.2,806.3v80h-19.3v-80h19.3Z"/>
          <path class="cls-2" d="M643.3,886.3v-80h19.3v64.3h33.3v15.7h-52.6Z"/>
        </g>
        <g>
          <g>
            <path class="cls-6" d="M846.3,822.8h-121.2c-4.6,0-8.2-3.7-8.2-8.2s3.7-8.2,8.2-8.2h121.2c4.6,0,8.2,3.7,8.2,8.2s-3.7,8.2-8.2,8.2Z"/>
            <path class="cls-6" d="M805.9,854.6h-80.8c-4.6,0-8.2-3.7-8.2-8.2s3.7-8.2,8.2-8.2h80.8c4.6,0,8.2,3.7,8.2,8.2s-3.7,8.2-8.2,8.2Z"/>
            <path class="cls-6" d="M763.2,886.3h-38.1c-4.6,0-8.2-3.7-8.2-8.2s3.7-8.2,8.2-8.2h38.1c4.6,0,8.2,3.7,8.2,8.2s-3.7,8.2-8.2,8.2Z"/>
          </g>
          <g>
            <path class="cls-7" d="M274.9,822.8h-121.2c-4.6,0-8.2-3.7-8.2-8.2s3.7-8.2,8.2-8.2h121.2c4.6,0,8.2,3.7,8.2,8.2s-3.7,8.2-8.2,8.2Z"/>
            <path class="cls-7" d="M274.9,854.6h-80.8c-4.6,0-8.2-3.7-8.2-8.2s3.7-8.2,8.2-8.2h80.8c4.6,0,8.2,3.7,8.2,8.2s-3.7,8.2-8.2,8.2Z"/>
            <path class="cls-7" d="M274.9,886.3h-38.1c-4.6,0-8.2-3.7-8.2-8.2s3.7-8.2,8.2-8.2h38.1c4.6,0,8.2,3.7,8.2,8.2s-3.7,8.2-8.2,8.2Z"/>
          </g>
        </g>
        <g>
          <path class="cls-7" d="M213.8,215.5c-11.2,0-20.4-9.1-20.4-20.4s9.1-20.4,20.4-20.4,20.4,9.1,20.4,20.4-9.1,20.4-20.4,20.4ZM213.8,185.7c-5.2,0-9.4,4.2-9.4,9.4s4.2,9.4,9.4,9.4,9.4-4.2,9.4-9.4-4.2-9.4-9.4-9.4Z"/>
          <path class="cls-6" d="M786.2,215.5c-11.2,0-20.4-9.1-20.4-20.4s9.1-20.4,20.4-20.4,20.4,9.1,20.4,20.4-9.1,20.4-20.4,20.4ZM786.2,185.7c-5.2,0-9.4,4.2-9.4,9.4s4.2,9.4,9.4,9.4,9.4-4.2,9.4-9.4-4.2-9.4-9.4-9.4Z"/>
          <path class="cls-6" d="M213.8,611.9c-11.2,0-20.4-9.1-20.4-20.4s9.1-20.4,20.4-20.4,20.4,9.1,20.4,20.4-9.1,20.4-20.4,20.4ZM213.8,582.1c-5.2,0-9.4,4.2-9.4,9.4s4.2,9.4,9.4,9.4,9.4-4.2,9.4-9.4-4.2-9.4-9.4-9.4Z"/>
          <path class="cls-6" d="M786.2,611.9c-11.2,0-20.4-9.1-20.4-20.4s9.1-20.4,20.4-20.4,20.4,9.1,20.4,20.4-9.1,20.4-20.4,20.4ZM786.2,582.1c-5.2,0-9.4,4.2-9.4,9.4s4.2,9.4,9.4,9.4,9.4-4.2,9.4-9.4-4.2-9.4-9.4-9.4Z"/>
        </g>
        <g>
          <polygon class="cls-1" points="788.5 394.3 500 640.8 211.5 394.3 156.3 394.3 500 688 843.7 394.3 788.5 394.3"/>
          <polygon class="cls-7" points="500 147.8 500 100.7 156.3 394.3 211.5 394.3 500 147.8"/>
          <polygon class="cls-5" points="788.5 394.3 843.7 394.3 500 100.7 500 147.8 788.5 394.3"/>
          <polygon class="cls-3" points="500 147.8 211.5 394.3 500 640.8 788.5 394.3 500 147.8"/>
        </g>
        <path class="cls-12" d="M643.2,320.4c12.3,22.7,19.3,48.7,19.3,76.3,0,88.4-71.7,160.1-160.1,160.1s-56.5,2.3-98.1-29.2c-35.5-26.9-50.9-67.6-52.2-66.8-1.1.6,7.5,25.7,25,48.1,30.3,38.6,93.4,77,164.7,61.4,78.6-17.1,127.8-91.1,128.7-160,.5-42.3-17.3-74.6-27.3-90Z"/>
        <g>
          <path class="cls-4" d="M486.9,529.1c-38.7,0-74.3-13.6-102.2-36.2,27.4,33.2,68.9,54.4,115.3,54.4,82.5,0,149.4-66.9,149.4-149.4s-.3-10.3-.8-15.4c-8,82.3-77.4,146.5-161.7,146.5h0Z"/>
          <path class="cls-6" d="M650.6,382.6c-7.8-76.2-72.2-135.8-150.4-135.8s-151.2,67.7-151.2,151.2,13,70.1,34.5,96.2c28.2,22.9,64.3,36.6,103.5,36.6,85.4,0,155.6-65.1,163.7-148.3Z"/>
          <path d="M500,235.4c-89.7,0-162.5,72.8-162.5,162.5s72.8,162.5,162.5,162.5,162.5-72.8,162.5-162.5-72.8-162.5-162.5-162.5h0ZM500,547.3c-82.5,0-149.4-66.9-149.4-149.4s66.9-149.4,149.4-149.4,149.4,66.9,149.4,149.4-66.9,149.4-149.4,149.4h0Z"/>
        </g>
        <g>
          <g>
            <path class="cls-9" d="M541.1,346.6c0-10.4-3.8-20-10.2-27.3v.3c0,17.8-11.1,32.9-26.8,38.9h37v-11.9Z"/>
            <path class="cls-8" d="M514.3,307.7c-4.6-1.8-9.6-2.7-14.9-2.7h0c-5.2,0-10.3,1-14.9,2.7-15.7,6-26.8,21.2-26.8,38.9v11.9h46.4c15.7-6,26.8-21.2,26.8-38.9v-.3c-4.5-5.1-10.1-9.2-16.6-11.7h0Z"/>
            <path class="cls-9" d="M555,378.9c.8,3.1,1.2,6.1,1.2,9.1,0,25.1-10.2,48.7-22.7,60.7-2.7,2.6-8.2,7.8-17.1,11.8-9.3,4.2-17.8,4.9-22.9,5-5.2,0-14-.5-23.8-4.7-9.2-4-14.8-9.3-17.7-12-5.2-4.9-9.2-10.5-12.3-16.2,3.2,11.2,8.9,23,19,32.6,2.9,2.7,8.5,8.1,17.7,12,9.8,4.2,18.6,4.8,23.8,4.7,5.1,0,13.6-.8,22.9-5,8.9-4,14.4-9.2,17.1-11.8,12.5-12,22.7-35.5,22.7-60.7s-3.6-17.7-7.9-25.5Z"/>
            <path class="cls-8" d="M452,448.7c2.9,2.7,8.5,8.1,17.7,12,9.8,4.2,18.6,4.8,23.8,4.7,5.1,0,13.6-.8,22.9-5,8.9-4,14.4-9.2,17.1-11.8,12.5-12,22.7-35.5,22.7-60.7s-.5-6.1-1.2-9.1c-6.2-11.4-13.7-19.9-13.7-19.9h-83.8s-21.6,24.5-21.6,45.5.7,17.2,3.8,28.1c3.1,5.7,7.1,11.2,12.3,16.2h0Z"/>
          </g>
          <path d="M602.1,415.3l-10-16.2c-1.1-1.8-3-2.8-5.1-2.8h-19.2c-1.7-8.8-5.9-17.4-10.2-24.5l24.3-24.3c2.3-2.3,2.3-6.1,0-8.5-2.3-2.3-6.1-2.3-8.5,0l-22.6,22.6c-1.5-2.1-2.8-3.7-3.8-4.8v-10.2c0-17.3-9.2-32.4-23-40.8v-13.9l2.6-2.6h14.4c2,3,5.4,5,9.2,5,6.1,0,11-4.9,11-11s-4.9-11-11-11-7.3,2-9.2,5h-19.4l-9.7,9.7v13.8c-4-1.1-8.3-1.7-12.6-1.7s-7,.4-10.3,1.1v-13.2l-9.7-9.7h-19.4c-2-3-5.4-5-9.2-5-6.1,0-11,4.9-11,11s4.9,11,11,11,7.3-2,9.2-5h14.4l2.6,2.6v12.6c-15.1,8-25.4,23.9-25.4,42.1v10.2c-.9,1.1-2.2,2.7-3.7,4.7l-22.3-22.3c-2.3-2.3-6.1-2.3-8.5,0s-2.3,6.1,0,8.5l23.9,23.9c-4.3,7.1-8.5,15.8-10.2,24.6h-18c-2.1,0-4,1.1-5.1,2.8l-10,16.2c-.6.9-.9,2-.9,3.2v18.2c0,3.3,2.7,6,6,6s6-2.7,6-6v-16.5l7.3-11.9h13.9c.3,8,1.5,18.4,5,29.2l-14.2,12.7c-1.2,1.1-1.9,2.6-1.9,4.3v31.1c0,3.2,2.6,5.7,5.7,5.7s5.7-2.6,5.7-5.7v-28.5l9.2-8.3c3.6,7.2,8.4,14.2,14.9,20.4,2.7,2.6,9.1,8.7,19.4,13.2,7.9,3.4,16.4,5.2,25.2,5.2s.7,0,1,0c8.8-.1,17.3-2,25.2-5.5,10-4.5,16.1-10.3,18.7-12.9,5.9-5.7,11-13.1,14.9-21.5l10.3,9.4v28.5c0,3.2,2.6,5.7,5.7,5.7s5.7-2.6,5.7-5.7v-31.1c0-1.6-.7-3.2-1.9-4.3l-15.4-14c2.9-8.9,4.6-18.4,5-28h15.1l7.3,11.9v16.5c0,3.3,2.7,6,6,6s6-2.7,6-6v-18.2c0-1.1-.3-2.2-.9-3.2l.5.2ZM460.2,364.7h33.2v32.5h-50.8c3.1-13.5,13.6-27.5,17.6-32.5h0ZM505.4,364.7h33.2c4.1,5,14.5,19,17.6,32.5h-50.8v-32.5h0ZM463.7,346.6c0-19.7,16-35.7,35.7-35.7s35.7,16,35.7,35.7v5.9h-71.3v-5.9h-.1ZM462.6,460.9c-16.3-15.5-20.2-37.5-20.8-51.7h51.6v66.5c-5.1-.6-10.1-1.9-14.8-3.9-8.4-3.6-13.5-8.6-16-10.9h0ZM536.2,460.9c-2.4,2.3-7.3,7-15.4,10.7-4.9,2.2-10,3.6-15.3,4.2v-66.5h51.6c-1.2,23-11.1,42.3-20.8,51.7h0Z"/>
        </g>
        <g>
          <g>
            <path class="cls-7" d="M218.3,261.3c.9.5,1.8.7,2.7.7,2,0,4-1.1,5.1-3,0-.1,6.8-12.4,20.3-24.7,17.6-16.1,51.7-46,84.7-73.8,2.4-2,2.7-5.7.7-8.1-2-2.4-5.7-2.7-8.1-.7-33.2,27.9-67.4,58-85.1,74.1-15.1,13.7-22.4,27.2-22.7,27.7-1.5,2.8-.5,6.3,2.3,7.8h0Z"/>
            <path class="cls-7" d="M463.4,99.1c-35.3-.6-53,15.2-53.7,15.9-.3.2-.5.5-.7.8-17.3,23-32.5,33.7-42.1,38.6,5.3-9.1,13.7-20.7,25.1-27.5,2.7-1.6,3.6-5.1,2-7.9-1.6-2.7-5.1-3.6-7.9-2-21.6,12.8-33.4,38.8-36,45.1-11.6,10.3-117.8,104.2-132.9,116.6-17.7,14.6-22.2,50-22.4,51.5-.3,2.3.9,4.6,3,5.7.9.5,1.8.7,2.7.7,1.3,0,2.6-.5,3.7-1.4l239.4-201.9c2.4-2,2.7-5.7.7-8.1s-5.7-2.7-8.1-.7l-226.7,191.2c2.9-10.3,7.7-22.2,15-28.2,16.1-13.2,129.4-113.5,134.2-117.8,0,0,.2-.2.3-.3,6.6-1.4,30.3-8.8,58.7-46.3,2.4-1.9,17.6-13.1,45.5-12.6,3.2,0,5.8-2.5,5.8-5.7s-2.5-5.8-5.7-5.8h.1Z"/>
          </g>
          <g>
            <path class="cls-11" d="M805.2,330.2c-.2-1.5-4.7-36.8-22.4-51.5-15.1-12.5-121.3-106.4-132.9-116.6-2.6-6.3-14.4-32.3-36-45.1-2.7-1.6-6.3-.7-7.9,2-1.6,2.7-.7,6.3,2,7.9,11.4,6.8,19.9,18.4,25.1,27.5-9.6-4.9-24.7-15.6-42.1-38.6-.2-.3-.5-.6-.7-.8-.7-.7-18.5-16.5-53.7-15.9-3.2,0-5.7,2.7-5.7,5.8s2.6,5.7,5.8,5.7c28-.4,43.1,10.7,45.5,12.6,28.4,37.5,52.1,44.9,58.7,46.3,0,0,.2.2.3.3,4.8,4.3,118.2,104.6,134.2,117.8,7.2,6,12.1,17.8,15,28.2l-226.7-191.2c-2.4-2-6.1-1.7-8.1.7-2,2.4-1.7,6.1.7,8.1l239.4,201.9c1.1.9,2.4,1.4,3.7,1.4s1.9-.2,2.7-.7c2.1-1.1,3.3-3.4,3-5.7h.1Z"/>
            <path class="cls-11" d="M753.5,234.3c13.5,12.3,20.3,24.6,20.3,24.7,1,1.9,3,3,5.1,3s1.9-.2,2.7-.7c2.8-1.5,3.8-5,2.3-7.8-.3-.6-7.7-14-22.7-27.7-17.7-16.1-51.9-46.2-85.1-74.1-2.4-2-6.1-1.7-8.1.7s-1.7,6.1.7,8.1c33.1,27.8,67.1,57.7,84.7,73.8h0Z"/>
          </g>
          <g>
            <path class="cls-11" d="M802.2,454.9c-2.1-1.1-4.6-.9-6.4.7l-239.4,201.9c-2.4,2-2.7,5.7-.7,8.1,2,2.4,5.7,2.7,8.1.7l226.7-191.2c-2.9,10.3-7.7,22.2-15,28.2-16.1,13.2-129.4,113.5-134.2,117.8l-.3.3c-6.6,1.4-30.3,8.8-58.7,46.3-2.4,1.9-17.6,13.1-45.5,12.6-3.2,0-5.8,2.5-5.8,5.7s2.5,5.8,5.7,5.8h1.8c34.1,0,51.2-15.3,51.9-15.9.3-.2.5-.5.7-.8,17.3-23,32.5-33.7,42.1-38.6-5.3,9.1-13.7,20.7-25.2,27.5-2.7,1.6-3.6,5.1-2,7.9,1.1,1.8,3,2.8,5,2.8s2-.3,2.9-.8c21.6-12.8,33.4-38.8,36-45.1,11.6-10.3,117.8-104.2,132.9-116.6,17.7-14.6,22.2-50,22.4-51.5.3-2.3-.9-4.6-3-5.7h0Z"/>
            <path class="cls-11" d="M781.7,529.5c-2.8-1.5-6.3-.5-7.8,2.3,0,0-6.7,12.3-20.3,24.7-17.6,16.1-51.7,46-84.7,73.8-2.4,2-2.7,5.7-.7,8.1,1.1,1.4,2.8,2,4.4,2s2.6-.4,3.7-1.3c33.2-27.9,67.4-58,85.1-74.1,15.1-13.7,22.4-27.2,22.7-27.7,1.5-2.8.5-6.3-2.3-7.8h-.1Z"/>
          </g>
          <g>
            <path class="cls-1" d="M246.5,556.5c-13.5-12.3-20.2-24.5-20.3-24.7-1.5-2.8-5-3.8-7.8-2.3s-3.8,5-2.3,7.8c.3.6,7.7,14,22.7,27.7,17.7,16.1,51.9,46.2,85.1,74.1,1.1.9,2.4,1.3,3.7,1.3s3.3-.7,4.4-2c2-2.4,1.7-6.1-.7-8.1-33.1-27.8-67.1-57.7-84.7-73.8h0Z"/>
            <path class="cls-1" d="M463.2,680.2c-28,.5-43.1-10.7-45.5-12.6-28.4-37.5-52.1-44.9-58.7-46.3l-.3-.3c-4.8-4.3-118.2-104.6-134.2-117.8-7.2-6-12.1-17.8-15-28.2l226.7,191.2c2.4,2,6.1,1.7,8.1-.7s1.7-6.1-.7-8.1l-239.4-201.9c-1.8-1.5-4.4-1.8-6.4-.7-2.1,1.1-3.3,3.4-3,5.7.2,1.5,4.7,36.8,22.4,51.5,15.1,12.5,121.3,106.4,132.9,116.6,2.6,6.3,14.4,32.3,36,45.1.9.5,1.9.8,2.9.8,2,0,3.9-1,5-2.8,1.6-2.7.7-6.3-2-7.9-11.4-6.8-19.9-18.4-25.1-27.5,9.6,4.9,24.7,15.6,42.1,38.6.2.3.5.6.7.8.7.7,17.9,15.9,51.9,15.9s1.2,0,1.8,0c3.2,0,5.7-2.7,5.7-5.8s-2.7-5.7-5.8-5.7h-.1Z"/>
          </g>
        </g>
      </g>
    </g>
  </g>
</svg>